<svg width="21" height="21" viewBox="0 0 21 21" fill="none" xmlns="http://www.w3.org/2000/svg">
<path d="M13 1.75C12.0135 1.75088 11.0412 1.98506 10.1625 2.43341C9.28384 2.88175 8.52363 3.53156 7.94398 4.32977C7.36433 5.12798 6.98167 6.05196 6.82725 7.02627C6.67284 8.00059 6.75104 8.99761 7.05547 9.93594L2.55781 14.4328C2.49979 14.4909 2.45378 14.5598 2.42241 14.6357C2.39105 14.7116 2.37494 14.7929 2.375 14.875V18C2.375 18.1658 2.44085 18.3247 2.55806 18.4419C2.67527 18.5592 2.83424 18.625 3 18.625H6.125C6.29076 18.625 6.44973 18.5592 6.56694 18.4419C6.68415 18.3247 6.75 18.1658 6.75 18V16.75H8C8.16576 16.75 8.32473 16.6842 8.44194 16.5669C8.55915 16.4497 8.625 16.2908 8.625 16.125V14.875H9.875C9.9571 14.8751 10.0384 14.859 10.1143 14.8276C10.1902 14.7962 10.2591 14.7502 10.3172 14.6922L11.0641 13.9445C11.9231 14.2234 12.8323 14.3128 13.7292 14.2066C14.6261 14.1004 15.4893 13.8011 16.2593 13.3292C17.0294 12.8574 17.6881 12.2243 18.19 11.4734C18.692 10.7226 19.0252 9.87191 19.1668 8.97994C19.3084 8.08797 19.255 7.1759 19.0103 6.30655C18.7656 5.43719 18.3354 4.63119 17.7493 3.94405C17.1632 3.25691 16.4351 2.70496 15.6153 2.3262C14.7954 1.94743 13.9031 1.75085 13 1.75ZM13 13C12.3673 13.0011 11.7402 12.8815 11.1523 12.6477C11.0373 12.5977 10.91 12.5836 10.7868 12.607C10.6637 12.6304 10.5504 12.6903 10.4617 12.7789L9.61641 13.625H8C7.83424 13.625 7.67527 13.6908 7.55806 13.8081C7.44085 13.9253 7.375 14.0842 7.375 14.25V15.5H6.125C5.95924 15.5 5.80027 15.5658 5.68306 15.6831C5.56585 15.8003 5.5 15.9592 5.5 16.125V17.375H3.625V15.1336L8.22109 10.5383C8.30971 10.4496 8.36961 10.3363 8.39302 10.2132C8.41643 10.09 8.40225 9.96266 8.35234 9.84766C7.9571 8.85379 7.89098 7.75937 8.16369 6.72514C8.4364 5.69092 9.03357 4.7714 9.86749 4.10164C10.7014 3.43189 11.7281 3.04719 12.7968 3.00407C13.8655 2.96094 14.9199 3.26165 15.8051 3.86203C16.6902 4.46242 17.3596 5.33082 17.7147 6.33971C18.0699 7.3486 18.0922 8.44479 17.7783 9.46727C17.4644 10.4898 16.8309 11.3846 15.9709 12.0205C15.1109 12.6564 14.0696 12.9997 13 13ZM15.5 6.4375C15.5 6.62292 15.445 6.80418 15.342 6.95835C15.239 7.11252 15.0926 7.23268 14.9213 7.30364C14.75 7.37459 14.5615 7.39316 14.3796 7.35699C14.1977 7.32081 14.0307 7.23152 13.8996 7.10041C13.7685 6.9693 13.6792 6.80225 13.643 6.6204C13.6068 6.43854 13.6254 6.25004 13.6964 6.07873C13.7673 5.90743 13.8875 5.76101 14.0417 5.658C14.1958 5.55498 14.3771 5.5 14.5625 5.5C14.8111 5.5 15.0496 5.59877 15.2254 5.77459C15.4012 5.9504 15.5 6.18886 15.5 6.4375Z" fill="#2C2C29"/>
</svg>
